# xmcd CD database file
#
# Track frame offsets:
#	150
#	2921
#	15368
#	32031
#	48154
#	61778
#	73222
#	89120
#	105736
#	118729
#	131941
#	143395
#	157369
#	169186
#	184123
#	200472
#	214205
#	234144
#	249736
#	265590
#
# Disc length: 3730 seconds
#
# Revision: 1
# Processed by: cddbd v1.5.2PL0 Copyright (c) Steve Scherf et al.
# Submitted via: CDex 1.70beta2
#
DISCID=1e0e9014
DTITLE=Bryan Shaw - 12 Classic Jazz Standards.  Accomp Version and Slow Version. Disc B
DYEAR=2007
DGENRE=Jazz
TTITLE0=Tuning Notes
TTITLE1=Sometimes I'm Happy
TTITLE2=I Only Have Eyes for You
TTITLE3=Body and Soul
TTITLE4=I Got Rhythm
TTITLE5=What Is This Thing Called Love
TTITLE6=April in Paris
TTITLE7=The Man I Love
TTITLE8=Lover Come Back to me
TTITLE9=Oh, Lady Be Good
TTITLE10=Poor Butterfly
TTITLE11=Embraceable You
TTITLE12=Three Little Words
TTITLE13=Sometimes I'm Happy_slow
TTITLE14=I Got Rhythm_slow
TTITLE15=What Is This Thing Called Love_slow
TTITLE16=The Man I Love_slow
TTITLE17=Lover Come Back to me_slow
TTITLE18=Oh, Lady Be Good_slow
TTITLE19=Three Little Words_slow
EXTD=YEAR: 2007
EXTT0=
EXTT1=
EXTT2=
EXTT3=
EXTT4=
EXTT5=
EXTT6=
EXTT7=
EXTT8=
EXTT9=
EXTT10=
EXTT11=
EXTT12=
EXTT13=
EXTT14=
EXTT15=
EXTT16=
EXTT17=
EXTT18=
EXTT19=
PLAYORDER=
